<svg xmlns="http://www.w3.org/2000/svg" xmlns:xlink="http://www.w3.org/1999/xlink" width="1123" zoomAndPan="magnify" viewBox="268 145 305 305" height="794" preserveAspectRatio="xMidYMid meet" version="1.0"><defs><clipPath id="0ed75e1dad"><path d="M 0.3125 0 L 841.527344 0 L 841.527344 595 L 0.3125 595 Z M 0.3125 0 " clip-rule="nonzero"/></clipPath><clipPath id="c3a8258222"><path d="M 339.511719 320 L 387.34375 320 L 387.34375 428.4375 L 339.511719 428.4375 Z M 339.511719 320 " clip-rule="nonzero"/></clipPath><clipPath id="621c07dbf2"><path d="M 339.777344 368.066406 L 339.777344 428.425781 L 387.234375 428.425781 L 387.234375 320.605469 Z M 339.777344 368.066406 " clip-rule="nonzero"/></clipPath><clipPath id="f9a862406a"><path d="M 0.628906 0.371094 L 48.34375 0.371094 L 48.34375 108.4375 L 0.628906 108.4375 Z M 0.628906 0.371094 " clip-rule="nonzero"/></clipPath><clipPath id="478bbd4772"><path d="M 0.777344 48.066406 L 0.777344 108.425781 L 48.234375 108.425781 L 48.234375 0.605469 Z M 0.777344 48.066406 " clip-rule="nonzero"/></clipPath><clipPath id="7620c7ca45"><rect x="0" width="49" y="0" height="109"/></clipPath><clipPath id="b6ce641a59"><path d="M 339.511719 166.339844 L 387.34375 166.339844 L 387.34375 290.910156 L 339.511719 290.910156 Z M 339.511719 166.339844 " clip-rule="nonzero"/></clipPath><clipPath id="1569ddf646"><path d="M 387.246094 242.582031 L 387.246094 166.355469 L 339.777344 166.355469 L 339.777344 290.039062 Z M 387.246094 242.582031 " clip-rule="nonzero"/></clipPath><clipPath id="6117a2635f"><path d="M 0.628906 0.339844 L 48.34375 0.339844 L 48.34375 124.15625 L 0.628906 124.15625 Z M 0.628906 0.339844 " clip-rule="nonzero"/></clipPath><clipPath id="7abff21f46"><path d="M 48.246094 76.582031 L 48.246094 0.355469 L 0.777344 0.355469 L 0.777344 124.039062 Z M 48.246094 76.582031 " clip-rule="nonzero"/></clipPath><clipPath id="36f648ad18"><rect x="0" width="49" y="0" height="125"/></clipPath><clipPath id="a9b2cb486d"><path d="M 454.113281 320 L 502.945312 320 L 502.945312 428.4375 L 454.113281 428.4375 Z M 454.113281 320 " clip-rule="nonzero"/></clipPath><clipPath id="a077ebe51a"><path d="M 454.570312 320.785156 L 454.570312 428.425781 L 502.03125 428.425781 L 502.03125 368.246094 Z M 454.570312 320.785156 " clip-rule="nonzero"/></clipPath><clipPath id="47b928acdd"><path d="M 0.492188 0.609375 L 48.210938 0.609375 L 48.210938 108.4375 L 0.492188 108.4375 Z M 0.492188 0.609375 " clip-rule="nonzero"/></clipPath><clipPath id="b3b4431a86"><path d="M 0.570312 0.785156 L 0.570312 108.425781 L 48.03125 108.425781 L 48.03125 48.246094 Z M 0.570312 0.785156 " clip-rule="nonzero"/></clipPath><clipPath id="5ed92bf5a5"><rect x="0" width="49" y="0" height="109"/></clipPath><clipPath id="231fdddd82"><path d="M 288.683594 214.175781 L 553.769531 214.175781 L 553.769531 380.601562 L 288.683594 380.601562 Z M 288.683594 214.175781 " clip-rule="nonzero"/></clipPath><clipPath id="425504f921"><path d="M 553.117188 346.753906 L 421.546875 215.191406 L 420.816406 214.464844 L 288.699219 346.574219 L 322.261719 380.132812 L 420.808594 281.578125 L 519.542969 380.316406 Z M 553.117188 346.753906 " clip-rule="nonzero"/></clipPath><clipPath id="f70939a3e1"><path d="M 0.683594 0.378906 L 265.289062 0.378906 L 265.289062 166.320312 L 0.683594 166.320312 Z M 0.683594 0.378906 " clip-rule="nonzero"/></clipPath><clipPath id="6c3ea0dda2"><path d="M 265.117188 132.753906 L 133.546875 1.191406 L 132.816406 0.464844 L 0.699219 132.574219 L 34.261719 166.132812 L 132.808594 67.578125 L 231.542969 166.316406 Z M 265.117188 132.753906 " clip-rule="nonzero"/></clipPath><clipPath id="3a1c6cce55"><rect x="0" width="266" y="0" height="167"/></clipPath><clipPath id="452d8668dc"><path d="M 402 343 L 419.234375 343 L 419.234375 360.671875 L 402 360.671875 Z M 402 343 " clip-rule="nonzero"/></clipPath><clipPath id="66cd89ba67"><path d="M 417.921875 360.589844 L 403.433594 360.589844 C 402.773438 360.589844 402.234375 360.050781 402.234375 359.390625 L 402.234375 344.902344 C 402.234375 344.246094 402.773438 343.707031 403.433594 343.707031 L 417.921875 343.707031 C 418.578125 343.707031 419.117188 344.234375 419.117188 344.902344 L 419.117188 359.390625 C 419.117188 360.050781 418.578125 360.589844 417.921875 360.589844 " clip-rule="nonzero"/></clipPath><clipPath id="d387c300ed"><path d="M 0.214844 0.632812 L 17.234375 0.632812 L 17.234375 17.65625 L 0.214844 17.65625 Z M 0.214844 0.632812 " clip-rule="nonzero"/></clipPath><clipPath id="9e05b6270e"><path d="M 15.921875 17.589844 L 1.433594 17.589844 C 0.773438 17.589844 0.234375 17.050781 0.234375 16.390625 L 0.234375 1.902344 C 0.234375 1.246094 0.773438 0.707031 1.433594 0.707031 L 15.921875 0.707031 C 16.578125 0.707031 17.117188 1.234375 17.117188 1.902344 L 17.117188 16.390625 C 17.117188 17.050781 16.578125 17.589844 15.921875 17.589844 " clip-rule="nonzero"/></clipPath><clipPath id="601f14552f"><rect x="0" width="18" y="0" height="18"/></clipPath><clipPath id="32743967dd"><path d="M 422.222656 343 L 440 343 L 440 360.671875 L 422.222656 360.671875 Z M 422.222656 343 " clip-rule="nonzero"/></clipPath><clipPath id="fc8ba501ef"><path d="M 438.382812 360.589844 L 423.886719 360.589844 C 423.226562 360.589844 422.6875 360.050781 422.6875 359.390625 L 422.6875 344.902344 C 422.6875 344.246094 423.226562 343.707031 423.886719 343.707031 L 438.371094 343.707031 C 439.03125 343.707031 439.570312 344.234375 439.570312 344.902344 L 439.570312 359.390625 C 439.570312 360.050781 439.03125 360.589844 438.371094 360.589844 " clip-rule="nonzero"/></clipPath><clipPath id="38a60fa848"><path d="M 0.597656 0.632812 L 17.625 0.632812 L 17.625 17.65625 L 0.597656 17.65625 Z M 0.597656 0.632812 " clip-rule="nonzero"/></clipPath><clipPath id="7c31ee9153"><path d="M 16.382812 17.589844 L 1.886719 17.589844 C 1.226562 17.589844 0.6875 17.050781 0.6875 16.390625 L 0.6875 1.902344 C 0.6875 1.246094 1.226562 0.707031 1.886719 0.707031 L 16.371094 0.707031 C 17.03125 0.707031 17.570312 1.234375 17.570312 1.902344 L 17.570312 16.390625 C 17.570312 17.050781 17.03125 17.589844 16.371094 17.589844 " clip-rule="nonzero"/></clipPath><clipPath id="c0cdd3e943"><rect x="0" width="18" y="0" height="18"/></clipPath><clipPath id="765b8feb61"><path d="M 402 363.660156 L 419.234375 363.660156 L 419.234375 381 L 402 381 Z M 402 363.660156 " clip-rule="nonzero"/></clipPath><clipPath id="dd59602f92"><path d="M 417.921875 380.734375 L 403.433594 380.734375 C 402.773438 380.734375 402.234375 380.195312 402.234375 379.535156 L 402.234375 365.046875 C 402.234375 364.386719 402.773438 363.847656 403.433594 363.847656 L 417.921875 363.847656 C 418.578125 363.847656 419.117188 364.378906 419.117188 365.046875 L 419.117188 379.535156 C 419.117188 380.195312 418.578125 380.734375 417.921875 380.734375 " clip-rule="nonzero"/></clipPath><clipPath id="1c03d57595"><path d="M 0.214844 0.773438 L 17.234375 0.773438 L 17.234375 17.800781 L 0.214844 17.800781 Z M 0.214844 0.773438 " clip-rule="nonzero"/></clipPath><clipPath id="6a75c3e908"><path d="M 15.921875 17.734375 L 1.433594 17.734375 C 0.773438 17.734375 0.234375 17.195312 0.234375 16.535156 L 0.234375 2.046875 C 0.234375 1.386719 0.773438 0.847656 1.433594 0.847656 L 15.921875 0.847656 C 16.578125 0.847656 17.117188 1.378906 17.117188 2.046875 L 17.117188 16.535156 C 17.117188 17.195312 16.578125 17.734375 15.921875 17.734375 " clip-rule="nonzero"/></clipPath><clipPath id="b34a5a86ff"><rect x="0" width="18" y="0" height="18"/></clipPath><clipPath id="30382e4cb9"><path d="M 422.222656 363.660156 L 440 363.660156 L 440 381 L 422.222656 381 Z M 422.222656 363.660156 " clip-rule="nonzero"/></clipPath><clipPath id="b8fe8f6549"><path d="M 438.382812 380.734375 L 423.886719 380.734375 C 423.226562 380.734375 422.6875 380.195312 422.6875 379.535156 L 422.6875 365.046875 C 422.6875 364.386719 423.226562 363.847656 423.886719 363.847656 L 438.371094 363.847656 C 439.03125 363.847656 439.570312 364.378906 439.570312 365.046875 L 439.570312 379.535156 C 439.570312 380.195312 439.03125 380.734375 438.371094 380.734375 " clip-rule="nonzero"/></clipPath><clipPath id="cbc0b73df1"><path d="M 0.597656 0.773438 L 17.625 0.773438 L 17.625 17.800781 L 0.597656 17.800781 Z M 0.597656 0.773438 " clip-rule="nonzero"/></clipPath><clipPath id="f2488c8feb"><path d="M 16.382812 17.734375 L 1.886719 17.734375 C 1.226562 17.734375 0.6875 17.195312 0.6875 16.535156 L 0.6875 2.046875 C 0.6875 1.386719 1.226562 0.847656 1.886719 0.847656 L 16.371094 0.847656 C 17.03125 0.847656 17.570312 1.378906 17.570312 2.046875 L 17.570312 16.535156 C 17.570312 17.195312 17.03125 17.734375 16.371094 17.734375 " clip-rule="nonzero"/></clipPath><clipPath id="2185c33223"><rect x="0" width="18" y="0" height="18"/></clipPath></defs><g clip-path="url(#0ed75e1dad)"><path fill="#ffffff" d="M 0.3125 0 L 841.855469 0 L 841.855469 595 L 0.3125 595 Z M 0.3125 0 " fill-opacity="1" fill-rule="nonzero"/><path fill="#ffffff" d="M 0.3125 0 L 841.855469 0 L 841.855469 595 L 0.3125 595 Z M 0.3125 0 " fill-opacity="1" fill-rule="nonzero"/></g><g clip-path="url(#c3a8258222)"><g clip-path="url(#621c07dbf2)"><g transform="matrix(1, 0, 0, 1, 339, 320)"><g clip-path="url(#7620c7ca45)"><g clip-path="url(#f9a862406a)"><g clip-path="url(#478bbd4772)"><rect x="-524.2224" width="1212.3648" fill="#26496b" height="857.519982" y="-451.009997" fill-opacity="1"/></g></g></g></g></g></g><g clip-path="url(#b6ce641a59)"><g clip-path="url(#1569ddf646)"><g transform="matrix(1, 0, 0, 1, 339, 166)"><g clip-path="url(#36f648ad18)"><g clip-path="url(#6117a2635f)"><g clip-path="url(#7abff21f46)"><rect x="-524.2224" width="1212.3648" fill="#26496b" height="857.519982" y="-297.009997" fill-opacity="1"/></g></g></g></g></g></g><g clip-path="url(#a9b2cb486d)"><g clip-path="url(#a077ebe51a)"><g transform="matrix(1, 0, 0, 1, 454, 320)"><g clip-path="url(#5ed92bf5a5)"><g clip-path="url(#47b928acdd)"><g clip-path="url(#b3b4431a86)"><rect x="-639.2224" width="1212.3648" fill="#26496b" height="857.519982" y="-451.009997" fill-opacity="1"/></g></g></g></g></g></g><g clip-path="url(#231fdddd82)"><g clip-path="url(#425504f921)"><g transform="matrix(1, 0, 0, 1, 288, 214)"><g clip-path="url(#3a1c6cce55)"><g clip-path="url(#f70939a3e1)"><g clip-path="url(#6c3ea0dda2)"><rect x="-473.2224" width="1212.3648" fill="#26496b" height="857.519982" y="-345.009997" fill-opacity="1"/></g></g></g></g></g></g><g clip-path="url(#452d8668dc)"><g clip-path="url(#66cd89ba67)"><g transform="matrix(1, 0, 0, 1, 402, 343)"><g clip-path="url(#601f14552f)"><g clip-path="url(#d387c300ed)"><g clip-path="url(#9e05b6270e)"><rect x="-587.2224" width="1212.3648" fill="#66aca9" height="857.519982" y="-474.009997" fill-opacity="1"/></g></g></g></g></g></g><g clip-path="url(#32743967dd)"><g clip-path="url(#fc8ba501ef)"><g transform="matrix(1, 0, 0, 1, 422, 343)"><g clip-path="url(#c0cdd3e943)"><g clip-path="url(#38a60fa848)"><g clip-path="url(#7c31ee9153)"><rect x="-607.2224" width="1212.3648" fill="#66aca9" height="857.519982" y="-474.009997" fill-opacity="1"/></g></g></g></g></g></g><g clip-path="url(#765b8feb61)"><g clip-path="url(#dd59602f92)"><g transform="matrix(1, 0, 0, 1, 402, 363)"><g clip-path="url(#b34a5a86ff)"><g clip-path="url(#1c03d57595)"><g clip-path="url(#6a75c3e908)"><rect x="-587.2224" width="1212.3648" fill="#66aca9" height="857.519982" y="-494.009997" fill-opacity="1"/></g></g></g></g></g></g><g clip-path="url(#30382e4cb9)"><g clip-path="url(#b8fe8f6549)"><g transform="matrix(1, 0, 0, 1, 422, 363)"><g clip-path="url(#2185c33223)"><g clip-path="url(#cbc0b73df1)"><g clip-path="url(#f2488c8feb)"><rect x="-607.2224" width="1212.3648" fill="#66aca9" height="857.519982" y="-494.009997" fill-opacity="1"/></g></g></g></g></g></g></svg>