<?xml version="1.0" encoding="UTF-8" standalone="no"?>
<svg
   xmlns:dc="http://purl.org/dc/elements/1.1/"
   xmlns:cc="http://creativecommons.org/ns#"
   xmlns:rdf="http://www.w3.org/1999/02/22-rdf-syntax-ns#"
   xmlns:svg="http://www.w3.org/2000/svg"
   xmlns="http://www.w3.org/2000/svg"
   viewBox="0 0 1122.52 793.70135"
   height="793.70135"
   width="1122.52"
   xml:space="preserve"
   id="svg2"
   version="1.1"><metadata
     id="metadata8"><rdf:RDF><cc:Work
         rdf:about=""><dc:format>image/svg+xml</dc:format><dc:type
           rdf:resource="http://purl.org/dc/dcmitype/StillImage" /></cc:Work></rdf:RDF></metadata><defs
     id="defs6"><clipPath
       id="clipPath18"
       clipPathUnits="userSpaceOnUse"><path
         id="path16"
         d="M 0,595.276 H 841.89 V 0 H 0 Z" /></clipPath></defs><g
     transform="matrix(1.3333333,0,0,-1.3333333,0,793.70133)"
     id="g10"><g
       id="g12"><g
         clip-path="url(#clipPath18)"
         id="g14"><g
           transform="translate(180.5169,251.4668)"
           id="g20"><path
             id="path22"
             style="fill:#ffffff;fill-opacity:1;fill-rule:nonzero;stroke:none"
             d="m 0,0 h 16.809 v -35.475 c 2.289,2.786 4.611,4.658 6.965,5.619 2.352,0.958 5.108,1.439 8.265,1.439 6.004,0 10.54,-1.657 13.605,-4.968 3.065,-3.314 4.597,-7.786 4.597,-13.42 V -77.08 H 33.432 v 24.053 c 0,2.414 -0.186,4.365 -0.557,5.851 -0.371,1.485 -0.991,2.63 -1.857,3.436 -1.486,1.3 -3.283,1.95 -5.386,1.95 -2.849,0 -5.031,-0.852 -6.548,-2.554 -1.518,-1.703 -2.275,-4.133 -2.275,-7.29 V -77.08 L 0,-77.08 Z" /></g><g
           transform="translate(257.7811,198.3472)"
           id="g24"><path
             id="path26"
             style="fill:#ffffff;fill-opacity:1;fill-rule:nonzero;stroke:none"
             d="m 0,0 c 0,-1.548 0.278,-2.988 0.836,-4.319 0.557,-1.332 1.315,-2.493 2.275,-3.482 0.959,-0.992 2.104,-1.764 3.436,-2.322 1.331,-0.557 2.77,-0.836 4.318,-0.836 1.486,0 2.894,0.279 4.226,0.836 1.33,0.558 2.475,1.33 3.436,2.322 0.959,0.989 1.733,2.136 2.322,3.436 0.588,1.3 0.882,2.693 0.882,4.179 0,1.486 -0.294,2.893 -0.882,4.226 -0.589,1.33 -1.363,2.491 -2.322,3.482 -0.961,0.99 -2.106,1.764 -3.436,2.322 -1.332,0.557 -2.74,0.836 -4.226,0.836 C 9.317,10.68 7.878,10.401 6.547,9.844 5.215,9.286 4.07,8.512 3.111,7.522 2.151,6.531 1.393,5.401 0.836,4.132 0.278,2.862 0,1.485 0,0 M 21.173,23.681 H 38.076 V -23.96 H 21.173 v 5.293 c -3.591,-4.519 -8.45,-6.779 -14.58,-6.779 -3.467,0 -6.656,0.636 -9.565,1.903 -2.911,1.269 -5.449,3.049 -7.615,5.341 -2.168,2.29 -3.854,4.983 -5.061,8.079 -1.208,3.095 -1.811,6.469 -1.811,10.123 0,3.404 0.588,6.639 1.765,9.705 1.175,3.064 2.816,5.741 4.921,8.032 2.104,2.29 4.612,4.101 7.522,5.433 2.91,1.331 6.13,1.997 9.659,1.997 5.943,0 10.865,-2.075 14.765,-6.222 z" /></g><g
           transform="translate(307.2786,222.028)"
           id="g28"><path
             id="path30"
             style="fill:#ffffff;fill-opacity:1;fill-rule:nonzero;stroke:none"
             d="m 0,0 h 16.809 v -7.801 c 1.795,2.848 3.993,5.03 6.593,6.548 2.601,1.516 5.633,2.274 9.101,2.274 h 1.44 c 0.525,0 1.129,-0.062 1.811,-0.185 V -15.23 c -2.229,1.114 -4.643,1.671 -7.244,1.671 -3.9,0 -6.826,-1.16 -8.776,-3.483 -1.95,-2.321 -2.925,-5.71 -2.925,-10.168 V -47.641 H 0 Z" /></g><path
           id="path32"
           style="fill:#ffffff;fill-opacity:1;fill-rule:nonzero;stroke:none"
           d="m 367.362,174.387 h -16.809 v 47.641 h 16.809 z m -17.923,65.936 c 0,1.3 0.247,2.522 0.743,3.669 0.495,1.144 1.175,2.149 2.043,3.018 0.866,0.865 1.872,1.546 3.018,2.043 1.145,0.494 2.368,0.743 3.669,0.743 1.3,0 2.521,-0.249 3.667,-0.743 1.145,-0.497 2.151,-1.178 3.018,-2.043 0.867,-0.869 1.548,-1.874 2.043,-3.018 0.496,-1.147 0.744,-2.369 0.744,-3.669 0,-1.301 -0.248,-2.523 -0.744,-3.668 -0.495,-1.147 -1.176,-2.152 -2.043,-3.018 -0.867,-0.868 -1.873,-1.549 -3.018,-2.043 -1.146,-0.497 -2.367,-0.744 -3.667,-0.744 -1.301,0 -2.524,0.247 -3.669,0.744 -1.146,0.494 -2.152,1.175 -3.018,2.043 -0.868,0.866 -1.548,1.871 -2.043,3.018 -0.496,1.145 -0.743,2.367 -0.743,3.668" /><g
           transform="translate(397.6367,208.0054)"
           id="g34"><path
             id="path36"
             style="fill:#ffffff;fill-opacity:1;fill-rule:nonzero;stroke:none"
             d="M 0,0 V -33.618 H -16.809 V 0 h -5.572 v 14.023 h 5.572 V 28.325 H 0 V 14.023 H 9.565 V 0 Z" /></g><g
           transform="translate(430.0453,198.3472)"
           id="g38"><path
             id="path40"
             style="fill:#6ab0a2;fill-opacity:1;fill-rule:nonzero;stroke:none"
             d="m 0,0 c 0,-1.548 0.278,-2.988 0.836,-4.319 0.557,-1.332 1.315,-2.493 2.275,-3.482 0.959,-0.992 2.104,-1.764 3.436,-2.322 1.331,-0.557 2.77,-0.836 4.318,-0.836 1.487,0 2.894,0.279 4.225,0.836 1.332,0.558 2.477,1.33 3.437,2.322 0.959,0.989 1.732,2.136 2.321,3.436 0.588,1.3 0.883,2.693 0.883,4.179 0,1.486 -0.295,2.893 -0.883,4.226 -0.589,1.33 -1.362,2.491 -2.321,3.482 -0.96,0.99 -2.105,1.764 -3.437,2.322 -1.331,0.557 -2.738,0.836 -4.225,0.836 C 9.317,10.68 7.878,10.401 6.547,9.844 5.215,9.286 4.07,8.512 3.111,7.522 2.151,6.531 1.393,5.401 0.836,4.132 0.278,2.862 0,1.485 0,0 M 21.174,23.681 H 38.075 V -23.96 H 21.174 v 5.293 c -3.592,-4.519 -8.451,-6.779 -14.58,-6.779 -3.468,0 -6.656,0.636 -9.566,1.903 -2.91,1.269 -5.449,3.049 -7.615,5.341 -2.168,2.29 -3.854,4.983 -5.061,8.079 -1.207,3.095 -1.811,6.469 -1.811,10.123 0,3.404 0.587,6.639 1.764,9.705 1.176,3.064 2.817,5.741 4.922,8.032 2.105,2.29 4.612,4.101 7.523,5.433 2.908,1.331 6.129,1.997 9.658,1.997 5.944,0 10.865,-2.075 14.766,-6.222 z" /></g><path
           id="path42"
           style="fill:#ffffff;fill-opacity:1;fill-rule:nonzero;stroke:none"
           d="m 496.351,174.387 h -16.809 v 47.641 h 16.809 z m -17.923,65.936 c 0,1.3 0.247,2.522 0.744,3.669 0.494,1.144 1.174,2.149 2.043,3.018 0.865,0.865 1.871,1.546 3.018,2.043 1.145,0.494 2.367,0.743 3.668,0.743 1.3,0 2.522,-0.249 3.668,-0.743 1.145,-0.497 2.15,-1.178 3.018,-2.043 0.866,-0.869 1.547,-1.874 2.043,-3.018 0.495,-1.147 0.743,-2.369 0.743,-3.669 0,-1.301 -0.248,-2.523 -0.743,-3.668 -0.496,-1.147 -1.177,-2.152 -2.043,-3.018 -0.868,-0.868 -1.873,-1.549 -3.018,-2.043 -1.146,-0.497 -2.368,-0.744 -3.668,-0.744 -1.301,0 -2.523,0.247 -3.668,0.744 -1.147,0.494 -2.153,1.175 -3.018,2.043 -0.869,0.866 -1.549,1.871 -2.043,3.018 -0.497,1.145 -0.744,2.367 -0.744,3.668" /><path
           id="path44"
           style="fill:#ffffff;fill-opacity:1;fill-rule:nonzero;stroke:none"
           d="m 524.675,174.387 h -16.809 v 77.08 h 16.809 z" /><g
           transform="translate(571.0159,205.1266)"
           id="g46"><path
             id="path48"
             style="fill:#ffffff;fill-opacity:1;fill-rule:nonzero;stroke:none"
             d="m 0,0 c -0.558,2.352 -1.703,4.24 -3.436,5.664 -1.734,1.424 -3.84,2.137 -6.315,2.137 -2.601,0 -4.722,-0.682 -6.362,-2.043 C -17.754,4.395 -18.791,2.475 -19.224,0 Z m -19.688,-9.751 c 0,-7.244 3.404,-10.866 10.215,-10.866 3.653,0 6.409,1.486 8.265,4.458 H 15.044 C 11.762,-27.057 3.559,-32.504 -9.565,-32.504 c -4.026,0 -7.708,0.604 -11.051,1.811 -3.344,1.207 -6.208,2.925 -8.591,5.154 -2.384,2.229 -4.226,4.89 -5.526,7.987 -1.299,3.095 -1.95,6.561 -1.95,10.401 0,3.961 0.618,7.537 1.858,10.726 1.237,3.188 3.002,5.897 5.293,8.126 2.289,2.229 5.062,3.947 8.312,5.154 3.25,1.207 6.918,1.811 11.004,1.811 4.024,0 7.646,-0.604 10.866,-1.811 3.218,-1.207 5.944,-2.957 8.172,-5.247 2.229,-2.291 3.931,-5.093 5.108,-8.404 1.175,-3.314 1.765,-7.044 1.765,-11.191 v -1.764 z" /></g><g
           transform="translate(627.8486,209.7693)"
           id="g50"><path
             id="path52"
             style="fill:#ffffff;fill-opacity:1;fill-rule:nonzero;stroke:none"
             d="m 0,0 c -3.096,1.61 -6.129,2.415 -9.101,2.415 -1.548,0 -2.802,-0.311 -3.761,-0.929 -0.96,-0.619 -1.439,-1.455 -1.439,-2.507 0,-0.557 0.077,-1.007 0.232,-1.347 0.154,-0.341 0.494,-0.666 1.021,-0.975 0.526,-0.311 1.3,-0.589 2.322,-0.836 1.021,-0.247 2.368,-0.557 4.04,-0.929 4.643,-0.928 8.11,-2.585 10.401,-4.968 2.29,-2.384 3.436,-5.433 3.436,-9.147 0,-2.786 -0.557,-5.294 -1.672,-7.522 -1.114,-2.229 -2.662,-4.103 -4.643,-5.619 -1.982,-1.518 -4.364,-2.693 -7.151,-3.529 -2.786,-0.835 -5.85,-1.254 -9.194,-1.254 -6.44,0 -12.785,1.826 -19.037,5.48 l 6.129,11.886 c 4.705,-3.219 9.162,-4.829 13.373,-4.829 1.547,0 2.817,0.34 3.807,1.022 0.99,0.681 1.486,1.546 1.486,2.6 0,0.618 -0.078,1.13 -0.232,1.532 -0.155,0.403 -0.481,0.774 -0.975,1.116 -0.497,0.338 -1.223,0.649 -2.182,0.927 -0.961,0.28 -2.215,0.573 -3.762,0.883 -5.2,1.052 -8.838,2.615 -10.911,4.69 -2.076,2.073 -3.111,4.936 -3.111,8.59 0,2.661 0.494,5.061 1.485,7.197 0.99,2.136 2.415,3.947 4.273,5.433 1.856,1.486 4.1,2.631 6.732,3.436 2.631,0.804 5.556,1.207 8.776,1.207 5.261,0 10.37,-1.021 15.323,-3.064 z" /></g><path
           id="path54"
           style="fill:#ffffff;fill-opacity:1;fill-rule:nonzero;stroke:none"
           d="m 660.352,174.387 h -16.809 v 47.641 h 16.809 z m -17.923,65.936 c 0,1.3 0.246,2.522 0.743,3.669 0.494,1.144 1.174,2.149 2.043,3.018 0.865,0.865 1.871,1.546 3.018,2.043 1.145,0.494 2.368,0.743 3.668,0.743 1.3,0 2.522,-0.249 3.668,-0.743 1.145,-0.497 2.151,-1.178 3.018,-2.043 0.867,-0.869 1.548,-1.874 2.043,-3.018 0.495,-1.147 0.743,-2.369 0.743,-3.669 0,-1.301 -0.248,-2.523 -0.743,-3.668 -0.495,-1.147 -1.176,-2.152 -2.043,-3.018 -0.867,-0.868 -1.873,-1.549 -3.018,-2.043 -1.146,-0.497 -2.368,-0.744 -3.668,-0.744 -1.3,0 -2.523,0.247 -3.668,0.744 -1.147,0.494 -2.153,1.175 -3.018,2.043 -0.869,0.866 -1.549,1.871 -2.043,3.018 -0.497,1.145 -0.743,2.367 -0.743,3.668" /><g
           transform="translate(182.3628,131.4249)"
           id="g56"><path
             id="path58"
             style="fill:#6ab0a2;fill-opacity:1;fill-rule:nonzero;stroke:none"
             d="M 0,0 4.582,23.4 12.053,6.484 19.792,23.4 23.908,0 H 20.539 L 18.438,13.139 11.997,-1.001 5.737,13.152 3.397,0 Z" /></g><g
           transform="translate(219.5225,140.1369)"
           id="g60"><path
             id="path62"
             style="fill:#6ab0a2;fill-opacity:1;fill-rule:nonzero;stroke:none"
             d="M 0,0 C -0.442,1.691 -1.509,2.537 -3.2,2.537 -3.585,2.537 -3.947,2.479 -4.286,2.361 -4.624,2.243 -4.932,2.074 -5.209,1.854 -5.486,1.633 -5.724,1.367 -5.921,1.058 -6.118,0.747 -6.269,0.395 -6.372,0 Z m 3.256,-2.594 h -9.839 c 0.084,-1.128 0.451,-2.025 1.099,-2.692 0.649,-0.658 1.48,-0.987 2.495,-0.987 0.79,0 1.443,0.188 1.96,0.564 0.507,0.375 1.085,1.071 1.734,2.086 L 3.383,-5.117 C 2.969,-5.822 2.532,-6.426 2.072,-6.929 1.611,-7.432 1.118,-7.845 0.592,-8.169 0.065,-8.493 -0.503,-8.73 -1.114,-8.881 c -0.611,-0.15 -1.273,-0.225 -1.988,-0.225 -2.048,0 -3.693,0.657 -4.934,1.973 -1.24,1.325 -1.86,3.082 -1.86,5.273 0,2.171 0.601,3.927 1.804,5.271 1.213,1.325 2.82,1.988 4.821,1.988 2.021,0 3.618,-0.644 4.793,-1.931 C 2.688,2.189 3.27,0.418 3.27,-1.847 Z" /></g><g
           transform="translate(234.2251,142.8156)"
           id="g64"><path
             id="path66"
             style="fill:#6ab0a2;fill-opacity:1;fill-rule:nonzero;stroke:none"
             d="m 0,0 -2.622,-1.396 c -0.414,0.846 -0.926,1.269 -1.537,1.269 -0.291,0 -0.54,-0.097 -0.747,-0.289 -0.206,-0.193 -0.31,-0.439 -0.31,-0.74 0,-0.527 0.611,-1.048 1.833,-1.565 1.682,-0.724 2.814,-1.391 3.397,-2.002 0.583,-0.611 0.874,-1.433 0.874,-2.466 0,-1.326 -0.489,-2.435 -1.466,-3.328 -0.949,-0.845 -2.096,-1.268 -3.44,-1.268 -2.302,0 -3.933,1.123 -4.891,3.369 l 2.706,1.255 c 0.376,-0.658 0.663,-1.076 0.86,-1.255 0.385,-0.357 0.846,-0.536 1.382,-0.536 1.071,0 1.607,0.489 1.607,1.467 0,0.563 -0.414,1.089 -1.241,1.578 -0.319,0.16 -0.639,0.315 -0.958,0.466 -0.32,0.149 -0.644,0.304 -0.973,0.464 -0.921,0.452 -1.569,0.903 -1.945,1.354 -0.48,0.573 -0.719,1.31 -0.719,2.213 0,1.193 0.409,2.181 1.226,2.961 0.837,0.779 1.852,1.17 3.045,1.17 C -2.162,2.721 -0.855,1.813 0,0" /></g><path
           id="path68"
           style="fill:#6ab0a2;fill-opacity:1;fill-rule:nonzero;stroke:none"
           d="m 241.132,131.425 h -3.171 v 23.81 h 3.171 z" /><g
           transform="translate(254.398,140.1369)"
           id="g70"><path
             id="path72"
             style="fill:#6ab0a2;fill-opacity:1;fill-rule:nonzero;stroke:none"
             d="M 0,0 C -0.442,1.691 -1.509,2.537 -3.2,2.537 -3.585,2.537 -3.947,2.479 -4.286,2.361 -4.624,2.243 -4.932,2.074 -5.209,1.854 -5.486,1.633 -5.724,1.367 -5.921,1.058 -6.118,0.747 -6.269,0.395 -6.372,0 Z m 3.256,-2.594 h -9.839 c 0.084,-1.128 0.451,-2.025 1.099,-2.692 0.649,-0.658 1.48,-0.987 2.495,-0.987 0.79,0 1.443,0.188 1.96,0.564 0.507,0.375 1.085,1.071 1.734,2.086 L 3.383,-5.117 C 2.969,-5.822 2.532,-6.426 2.072,-6.929 1.611,-7.432 1.118,-7.845 0.592,-8.169 0.065,-8.493 -0.503,-8.73 -1.114,-8.881 c -0.611,-0.15 -1.273,-0.225 -1.988,-0.225 -2.048,0 -3.693,0.657 -4.934,1.973 -1.24,1.325 -1.86,3.082 -1.86,5.273 0,2.171 0.601,3.927 1.804,5.271 1.213,1.325 2.82,1.988 4.821,1.988 2.021,0 3.618,-0.644 4.793,-1.931 C 2.687,2.189 3.27,0.418 3.27,-1.847 Z" /></g><g
           transform="translate(271.356,138.2619)"
           id="g74"><path
             id="path76"
             style="fill:#6ab0a2;fill-opacity:1;fill-rule:nonzero;stroke:none"
             d="M 0,0 C 0,1.334 -0.357,2.401 -1.071,3.2 -1.795,4.018 -2.72,4.427 -3.848,4.427 -5.051,4.427 -6,3.98 -6.696,3.087 -7.326,2.288 -7.64,1.255 -7.64,-0.014 c 0,-1.25 0.314,-2.274 0.944,-3.073 0.686,-0.874 1.635,-1.311 2.848,-1.311 1.212,0 2.171,0.442 2.875,1.325 C -0.324,-2.274 0,-1.25 0,0 m -8.796,13.772 h 2.608 c 0.207,-1.475 1.024,-2.212 2.453,-2.212 1.419,0 2.232,0.737 2.438,2.212 H 1.311 C 1.17,12.213 0.67,11.035 -0.19,10.241 -1.05,9.447 -2.255,9.05 -3.806,9.05 c -1.438,0 -2.603,0.419 -3.496,1.255 -0.884,0.827 -1.382,1.983 -1.494,3.467 M 3.045,-6.513 C 3.045,-7.161 3.024,-7.732 2.982,-8.226 2.939,-8.719 2.881,-9.153 2.806,-9.529 2.58,-10.563 2.138,-11.451 1.48,-12.193 c -1.24,-1.429 -2.946,-2.144 -5.117,-2.144 -1.832,0 -3.341,0.494 -4.525,1.481 -1.222,1.015 -1.926,2.419 -2.114,4.214 h 3.186 c 0.122,-0.676 0.324,-1.198 0.606,-1.564 0.657,-0.856 1.616,-1.283 2.876,-1.283 2.32,0 3.482,1.424 3.482,4.271 v 1.917 c -1.26,-1.287 -2.712,-1.93 -4.356,-1.93 -1.871,0 -3.403,0.676 -4.596,2.029 -1.203,1.372 -1.804,3.088 -1.804,5.145 0,2.002 0.558,3.703 1.677,5.104 1.203,1.484 2.791,2.227 4.765,2.227 1.729,0 3.167,-0.644 4.314,-1.931 v 1.551 h 3.171 z" /></g><path
           id="path78"
           style="fill:#6ab0a2;fill-opacity:1;fill-rule:nonzero;stroke:none"
           d="m 281.576,131.425 h -3.171 v 13.73 h 3.171 z m -3.651,19.439 c 0,0.555 0.202,1.035 0.606,1.439 0.405,0.403 0.888,0.605 1.452,0.605 0.574,0 1.062,-0.202 1.467,-0.605 0.404,-0.396 0.606,-0.879 0.606,-1.452 0,-0.574 -0.202,-1.063 -0.606,-1.467 -0.395,-0.403 -0.879,-0.606 -1.452,-0.606 -0.574,0 -1.062,0.203 -1.467,0.606 -0.404,0.404 -0.606,0.897 -0.606,1.48" /><g
           transform="translate(285.5943,145.1554)"
           id="g80"><path
             id="path82"
             style="fill:#6ab0a2;fill-opacity:1;fill-rule:nonzero;stroke:none"
             d="m 0,0 h 3.186 v -1.269 c 1.108,1.1 2.359,1.65 3.75,1.65 1.597,0 2.842,-0.503 3.735,-1.509 0.77,-0.855 1.156,-2.251 1.156,-4.186 V -13.73 H 8.642 v 7.668 c 0,1.354 -0.189,2.289 -0.565,2.805 -0.366,0.527 -1.033,0.79 -2.001,0.79 -1.053,0 -1.8,-0.347 -2.242,-1.043 C 3.402,-4.196 3.186,-5.395 3.186,-7.104 V -13.73 H 0 Z" /></g><g
           transform="translate(310.6734,140.1369)"
           id="g84"><path
             id="path86"
             style="fill:#6ab0a2;fill-opacity:1;fill-rule:nonzero;stroke:none"
             d="M 0,0 C -0.442,1.691 -1.509,2.537 -3.2,2.537 -3.586,2.537 -3.947,2.479 -4.286,2.361 -4.624,2.243 -4.933,2.074 -5.209,1.854 -5.486,1.633 -5.724,1.367 -5.921,1.058 -6.118,0.747 -6.269,0.395 -6.372,0 Z m 3.256,-2.594 h -9.84 c 0.085,-1.128 0.451,-2.025 1.1,-2.692 0.648,-0.658 1.48,-0.987 2.495,-0.987 0.79,0 1.442,0.188 1.96,0.564 0.507,0.375 1.085,1.071 1.733,2.086 L 3.383,-5.117 C 2.969,-5.822 2.532,-6.426 2.071,-6.929 1.611,-7.432 1.118,-7.845 0.592,-8.169 0.065,-8.493 -0.503,-8.73 -1.114,-8.881 c -0.612,-0.15 -1.274,-0.225 -1.988,-0.225 -2.048,0 -3.693,0.657 -4.934,1.973 -1.24,1.325 -1.86,3.082 -1.86,5.273 0,2.171 0.601,3.927 1.804,5.271 1.212,1.325 2.82,1.988 4.821,1.988 2.021,0 3.618,-0.644 4.793,-1.931 C 2.688,2.189 3.27,0.418 3.27,-1.847 Z" /></g><g
           transform="translate(328.8999,138.3322)"
           id="g88"><path
             id="path90"
             style="fill:#6ab0a2;fill-opacity:1;fill-rule:nonzero;stroke:none"
             d="m 0,0 c 0,-1.315 0.353,-2.387 1.058,-3.214 0.723,-0.837 1.634,-1.255 2.734,-1.255 1.175,0 2.124,0.405 2.848,1.213 0.723,0.836 1.086,1.899 1.086,3.186 0,1.287 -0.363,2.349 -1.086,3.185 C 5.916,3.934 4.977,4.342 3.82,4.342 2.73,4.342 1.818,3.929 1.086,3.102 0.361,2.265 0,1.231 0,0 m 7.528,16.902 h 3.186 V -6.907 H 7.528 v 1.437 c -1.25,-1.221 -2.665,-1.832 -4.243,-1.832 -1.88,0 -3.44,0.686 -4.681,2.058 -1.231,1.4 -1.846,3.148 -1.846,5.244 0,2.049 0.615,3.759 1.846,5.132 1.222,1.381 2.758,2.072 4.61,2.072 1.607,0 3.045,-0.658 4.314,-1.974 z" /></g><g
           transform="translate(352.8648,140.1369)"
           id="g92"><path
             id="path94"
             style="fill:#6ab0a2;fill-opacity:1;fill-rule:nonzero;stroke:none"
             d="M 0,0 C -0.442,1.691 -1.509,2.537 -3.2,2.537 -3.586,2.537 -3.947,2.479 -4.286,2.361 -4.624,2.243 -4.933,2.074 -5.209,1.854 -5.486,1.633 -5.724,1.367 -5.921,1.058 -6.118,0.747 -6.269,0.395 -6.372,0 Z m 3.256,-2.594 h -9.84 c 0.085,-1.128 0.451,-2.025 1.1,-2.692 0.648,-0.658 1.48,-0.987 2.495,-0.987 0.79,0 1.442,0.188 1.96,0.564 0.507,0.375 1.085,1.071 1.733,2.086 L 3.383,-5.117 C 2.969,-5.822 2.532,-6.426 2.071,-6.929 1.611,-7.432 1.118,-7.845 0.592,-8.169 0.065,-8.493 -0.503,-8.73 -1.114,-8.881 c -0.612,-0.15 -1.274,-0.225 -1.988,-0.225 -2.048,0 -3.693,0.657 -4.934,1.973 -1.24,1.325 -1.86,3.082 -1.86,5.273 0,2.171 0.601,3.927 1.804,5.271 1.212,1.325 2.82,1.988 4.821,1.988 2.021,0 3.618,-0.644 4.793,-1.931 C 2.688,2.189 3.27,0.418 3.27,-1.847 Z" /></g><g
           transform="translate(369.8228,138.2619)"
           id="g96"><path
             id="path98"
             style="fill:#6ab0a2;fill-opacity:1;fill-rule:nonzero;stroke:none"
             d="M 0,0 C 0,1.334 -0.356,2.401 -1.071,3.2 -1.795,4.018 -2.72,4.427 -3.848,4.427 -5.051,4.427 -6,3.98 -6.695,3.087 -7.325,2.288 -7.64,1.255 -7.64,-0.014 c 0,-1.25 0.315,-2.274 0.945,-3.073 0.685,-0.874 1.634,-1.311 2.847,-1.311 1.212,0 2.171,0.442 2.875,1.325 C -0.324,-2.274 0,-1.25 0,0 m -8.796,13.772 h 2.608 c 0.207,-1.475 1.024,-2.212 2.453,-2.212 1.419,0 2.232,0.737 2.438,2.212 H 1.312 C 1.171,12.213 0.67,11.035 -0.189,10.241 -1.05,9.447 -2.255,9.05 -3.806,9.05 c -1.437,0 -2.603,0.419 -3.496,1.255 -0.884,0.827 -1.382,1.983 -1.494,3.467 M 3.045,-6.513 C 3.045,-7.161 3.024,-7.732 2.982,-8.226 2.939,-8.719 2.881,-9.153 2.806,-9.529 2.58,-10.563 2.139,-11.451 1.48,-12.193 c -1.24,-1.429 -2.946,-2.144 -5.117,-2.144 -1.832,0 -3.341,0.494 -4.524,1.481 -1.223,1.015 -1.927,2.419 -2.115,4.214 h 3.186 c 0.122,-0.676 0.324,-1.198 0.606,-1.564 0.658,-0.856 1.616,-1.283 2.876,-1.283 2.321,0 3.482,1.424 3.482,4.271 v 1.917 c -1.26,-1.287 -2.712,-1.93 -4.356,-1.93 -1.871,0 -3.403,0.676 -4.596,2.029 -1.203,1.372 -1.804,3.088 -1.804,5.145 0,2.002 0.559,3.703 1.677,5.104 1.203,1.484 2.791,2.227 4.765,2.227 1.729,0 3.167,-0.644 4.314,-1.931 v 1.551 h 3.171 z" /></g><g
           transform="translate(386.1197,140.1369)"
           id="g100"><path
             id="path102"
             style="fill:#6ab0a2;fill-opacity:1;fill-rule:nonzero;stroke:none"
             d="M 0,0 C -0.442,1.691 -1.509,2.537 -3.2,2.537 -3.586,2.537 -3.947,2.479 -4.286,2.361 -4.624,2.243 -4.933,2.074 -5.209,1.854 -5.486,1.633 -5.724,1.367 -5.921,1.058 -6.118,0.747 -6.269,0.395 -6.372,0 Z m 3.256,-2.594 h -9.84 c 0.085,-1.128 0.451,-2.025 1.1,-2.692 0.648,-0.658 1.48,-0.987 2.495,-0.987 0.79,0 1.442,0.188 1.96,0.564 0.507,0.375 1.085,1.071 1.733,2.086 L 3.383,-5.117 C 2.969,-5.822 2.532,-6.426 2.071,-6.929 1.611,-7.432 1.118,-7.845 0.592,-8.169 0.065,-8.493 -0.503,-8.73 -1.114,-8.881 c -0.612,-0.15 -1.274,-0.225 -1.988,-0.225 -2.048,0 -3.693,0.657 -4.934,1.973 -1.24,1.325 -1.86,3.082 -1.86,5.273 0,2.171 0.601,3.927 1.804,5.271 1.212,1.325 2.82,1.988 4.821,1.988 2.021,0 3.618,-0.644 4.793,-1.931 C 2.688,2.189 3.27,0.418 3.27,-1.847 Z" /></g><g
           transform="translate(392.8433,145.1554)"
           id="g104"><path
             id="path106"
             style="fill:#6ab0a2;fill-opacity:1;fill-rule:nonzero;stroke:none"
             d="m 0,0 h 3.172 v -1.227 c 0.583,0.611 1.099,1.03 1.551,1.255 0.46,0.235 1.005,0.353 1.634,0.353 0.837,0 1.711,-0.274 2.622,-0.818 L 7.527,-3.341 c -0.601,0.432 -1.188,0.649 -1.761,0.649 -1.73,0 -2.594,-1.307 -2.594,-3.919 V -13.73 H 0 Z" /></g><g
           transform="translate(415.7222,155.2345)"
           id="g108"><path
             id="path110"
             style="fill:#6ab0a2;fill-opacity:1;fill-rule:nonzero;stroke:none"
             d="m 0,0 v -14.52 l 4.469,4.441 h 4.258 l -5.963,-5.766 6.4,-7.965 H 5.047 L 0.508,-18.016 0,-18.523 V -23.81 H -3.171 V 0 Z" /></g><g
           transform="translate(429.0298,138.3322)"
           id="g112"><path
             id="path114"
             style="fill:#6ab0a2;fill-opacity:1;fill-rule:nonzero;stroke:none"
             d="m 0,0 c 0,-1.315 0.353,-2.387 1.058,-3.214 0.722,-0.837 1.634,-1.255 2.734,-1.255 1.175,0 2.124,0.405 2.848,1.213 0.723,0.836 1.085,1.899 1.085,3.186 0,1.287 -0.362,2.349 -1.085,3.185 C 5.916,3.934 4.976,4.342 3.82,4.342 2.729,4.342 1.818,3.929 1.085,3.102 0.361,2.265 0,1.231 0,0 m 7.527,6.823 h 3.187 V -6.907 H 7.527 V -5.47 C 6.222,-6.691 4.816,-7.302 3.313,-7.302 c -1.899,0 -3.468,0.686 -4.709,2.058 -1.231,1.4 -1.846,3.148 -1.846,5.244 0,2.059 0.615,3.773 1.846,5.146 1.231,1.372 2.773,2.058 4.625,2.058 1.596,0 3.03,-0.658 4.298,-1.974 z" /></g><g
           transform="translate(447.0171,142.1945)"
           id="g116"><path
             id="path118"
             style="fill:#6ab0a2;fill-opacity:1;fill-rule:nonzero;stroke:none"
             d="M 0,0 V -10.77 H -3.172 V 0 h -1.353 v 2.961 h 1.353 V 7.993 H 0 V 2.961 H 2.467 L 2.467,0 Z" /></g><g
           transform="translate(451.6411,145.1554)"
           id="g120"><path
             id="path122"
             style="fill:#6ab0a2;fill-opacity:1;fill-rule:nonzero;stroke:none"
             d="m 0,0 h 3.172 v -1.269 c 0.61,0.639 1.132,1.072 1.564,1.297 0.46,0.235 1.038,0.353 1.735,0.353 1.55,0 2.776,-0.677 3.678,-2.03 0.997,1.353 2.345,2.03 4.046,2.03 3.092,0 4.638,-1.875 4.638,-5.625 v -8.486 h -3.186 v 7.626 c 0,1.316 -0.16,2.246 -0.479,2.791 -0.329,0.554 -0.869,0.832 -1.621,0.832 -0.874,0 -1.511,-0.33 -1.91,-0.987 -0.4,-0.658 -0.599,-1.716 -0.599,-3.172 v -7.09 H 7.852 v 7.584 c 0,2.443 -0.706,3.665 -2.115,3.665 -0.892,0 -1.544,-0.333 -1.952,-1.001 C 3.376,-4.149 3.172,-5.202 3.172,-6.64 v -7.09 H 0 Z" /></g><g
           transform="translate(477.0718,138.3322)"
           id="g124"><path
             id="path126"
             style="fill:#6ab0a2;fill-opacity:1;fill-rule:nonzero;stroke:none"
             d="m 0,0 c 0,-1.315 0.353,-2.387 1.058,-3.214 0.722,-0.837 1.634,-1.255 2.734,-1.255 1.175,0 2.124,0.405 2.848,1.213 0.723,0.836 1.085,1.899 1.085,3.186 0,1.287 -0.362,2.349 -1.085,3.185 C 5.916,3.934 4.976,4.342 3.82,4.342 2.729,4.342 1.818,3.929 1.085,3.102 0.361,2.265 0,1.231 0,0 m 7.527,6.823 h 3.187 V -6.907 H 7.527 V -5.47 C 6.222,-6.691 4.816,-7.302 3.313,-7.302 c -1.899,0 -3.468,0.686 -4.709,2.058 -1.231,1.4 -1.846,3.148 -1.846,5.244 0,2.059 0.615,3.773 1.846,5.146 1.231,1.372 2.773,2.058 4.625,2.058 1.596,0 3.03,-0.658 4.298,-1.974 z" /></g><g
           transform="translate(496.3697,133.9767)"
           id="g128"><path
             id="path130"
             style="fill:#6ab0a2;fill-opacity:1;fill-rule:nonzero;stroke:none"
             d="m 0,0 -6.174,11.179 h 3.679 L 1.706,3.284 5.625,11.179 H 9.206 L -1.733,-10.023 h -3.623 z" /></g><g
           transform="translate(509.8326,138.3322)"
           id="g132"><path
             id="path134"
             style="fill:#6ab0a2;fill-opacity:1;fill-rule:nonzero;stroke:none"
             d="m 0,0 c 0,-1.315 0.353,-2.387 1.058,-3.214 0.722,-0.837 1.634,-1.255 2.734,-1.255 1.175,0 2.124,0.405 2.848,1.213 0.723,0.836 1.085,1.899 1.085,3.186 0,1.287 -0.362,2.349 -1.085,3.185 C 5.916,3.934 4.976,4.342 3.82,4.342 2.73,4.342 1.818,3.929 1.085,3.102 0.361,2.265 0,1.231 0,0 m 7.527,6.823 h 3.187 V -6.907 H 7.527 V -5.47 C 6.222,-6.691 4.816,-7.302 3.313,-7.302 c -1.899,0 -3.468,0.686 -4.709,2.058 -1.231,1.4 -1.846,3.148 -1.846,5.244 0,2.059 0.615,3.773 1.846,5.146 1.231,1.372 2.773,2.058 4.625,2.058 1.596,0 3.03,-0.658 4.298,-1.974 z" /></g><g
           transform="translate(535.1646,145.1554)"
           id="g136"><path
             id="path138"
             style="fill:#6ab0a2;fill-opacity:1;fill-rule:nonzero;stroke:none"
             d="M 0,0 3.553,-7.711 7.091,0 h 3.566 L 3.524,-14.675 -3.552,0 Z" /></g><g
           transform="translate(550.065,138.3322)"
           id="g140"><path
             id="path142"
             style="fill:#6ab0a2;fill-opacity:1;fill-rule:nonzero;stroke:none"
             d="m 0,0 c 0,-1.315 0.353,-2.387 1.058,-3.214 0.722,-0.837 1.634,-1.255 2.734,-1.255 1.175,0 2.124,0.405 2.848,1.213 0.723,0.836 1.085,1.899 1.085,3.186 0,1.287 -0.362,2.349 -1.085,3.185 C 5.916,3.934 4.976,4.342 3.82,4.342 2.729,4.342 1.818,3.929 1.085,3.102 0.361,2.265 0,1.231 0,0 m 7.527,6.823 h 3.187 V -6.907 H 7.527 V -5.47 C 6.222,-6.691 4.816,-7.302 3.313,-7.302 c -1.899,0 -3.468,0.686 -4.709,2.058 -1.231,1.4 -1.846,3.148 -1.846,5.244 0,2.059 0.615,3.773 1.846,5.146 1.231,1.372 2.773,2.058 4.625,2.058 1.596,0 3.03,-0.658 4.298,-1.974 z" /></g><g
           transform="translate(564.7828,145.1554)"
           id="g144"><path
             id="path146"
             style="fill:#6ab0a2;fill-opacity:1;fill-rule:nonzero;stroke:none"
             d="m 0,0 h 3.172 v -1.227 c 0.582,0.611 1.099,1.03 1.551,1.255 0.46,0.235 1.005,0.353 1.634,0.353 0.836,0 1.71,-0.274 2.622,-0.818 L 7.527,-3.341 c -0.601,0.432 -1.188,0.649 -1.761,0.649 -1.73,0 -2.594,-1.307 -2.594,-3.919 V -13.73 H 0 Z" /></g><g
           transform="translate(584.4898,145.1554)"
           id="g148"><path
             id="path150"
             style="fill:#6ab0a2;fill-opacity:1;fill-rule:nonzero;stroke:none"
             d="m 0,0 h 3.172 v -1.269 c 0.61,0.639 1.132,1.072 1.564,1.297 0.46,0.235 1.038,0.353 1.735,0.353 1.55,0 2.776,-0.677 3.678,-2.03 0.997,1.353 2.345,2.03 4.046,2.03 3.092,0 4.638,-1.875 4.638,-5.625 v -8.486 h -3.186 v 7.626 c 0,1.316 -0.16,2.246 -0.479,2.791 -0.329,0.554 -0.869,0.832 -1.621,0.832 -0.874,0 -1.511,-0.33 -1.91,-0.987 -0.4,-0.658 -0.599,-1.716 -0.599,-3.172 v -7.09 H 7.852 v 7.584 c 0,2.443 -0.706,3.665 -2.115,3.665 -0.892,0 -1.544,-0.333 -1.952,-1.001 C 3.376,-4.149 3.172,-5.202 3.172,-6.64 v -7.09 H 0 Z" /></g><path
           id="path152"
           style="fill:#6ab0a2;fill-opacity:1;fill-rule:nonzero;stroke:none"
           d="m 610.499,131.425 h -3.172 v 13.73 h 3.172 z" /><g
           transform="translate(622.4947,142.8156)"
           id="g154"><path
             id="path156"
             style="fill:#6ab0a2;fill-opacity:1;fill-rule:nonzero;stroke:none"
             d="m 0,0 -2.622,-1.396 c -0.413,0.846 -0.926,1.269 -1.536,1.269 -0.292,0 -0.541,-0.097 -0.747,-0.289 -0.207,-0.193 -0.311,-0.439 -0.311,-0.74 0,-0.527 0.612,-1.048 1.833,-1.565 1.682,-0.724 2.815,-1.391 3.398,-2.002 0.582,-0.611 0.874,-1.433 0.874,-2.466 0,-1.326 -0.49,-2.435 -1.467,-3.328 -0.949,-0.845 -2.096,-1.268 -3.44,-1.268 -2.302,0 -3.932,1.123 -4.891,3.369 l 2.707,1.255 c 0.375,-0.658 0.662,-1.076 0.859,-1.255 0.386,-0.357 0.846,-0.536 1.382,-0.536 1.071,0 1.607,0.489 1.607,1.467 0,0.563 -0.414,1.089 -1.241,1.578 -0.319,0.16 -0.638,0.315 -0.958,0.466 -0.32,0.149 -0.644,0.304 -0.972,0.464 -0.922,0.452 -1.571,0.903 -1.947,1.354 -0.478,0.573 -0.718,1.31 -0.718,2.213 0,1.193 0.409,2.181 1.226,2.961 0.837,0.779 1.852,1.17 3.045,1.17 C -2.161,2.721 -0.855,1.813 0,0" /></g><path
           id="path158"
           style="fill:#6ab0a2;fill-opacity:1;fill-rule:nonzero;stroke:none"
           d="m 629.403,131.425 h -3.172 v 13.73 h 3.172 z" /><g
           transform="translate(633.4205,145.1554)"
           id="g160"><path
             id="path162"
             style="fill:#6ab0a2;fill-opacity:1;fill-rule:nonzero;stroke:none"
             d="m 0,0 h 3.186 v -1.269 c 1.109,1.1 2.359,1.65 3.75,1.65 1.597,0 2.842,-0.503 3.735,-1.509 0.77,-0.855 1.156,-2.251 1.156,-4.186 V -13.73 H 8.642 v 7.668 c 0,1.354 -0.189,2.289 -0.565,2.805 -0.366,0.527 -1.034,0.79 -2.002,0.79 -1.053,0 -1.8,-0.347 -2.241,-1.043 C 3.401,-4.196 3.186,-5.395 3.186,-7.104 V -13.73 H 0 Z" /></g><g
           transform="translate(652.3795,133.004)"
           id="g164"><path
             id="path166"
             style="fill:#6ab0a2;fill-opacity:1;fill-rule:nonzero;stroke:none"
             d="M 0,0 C 0,0.526 0.193,0.981 0.578,1.367 0.964,1.752 1.424,1.945 1.96,1.945 2.495,1.945 2.956,1.752 3.342,1.367 3.727,0.981 3.919,0.521 3.919,-0.015 3.919,-0.56 3.727,-1.024 3.342,-1.41 2.966,-1.786 2.51,-1.974 1.974,-1.974 1.419,-1.974 0.954,-1.786 0.578,-1.41 0.193,-1.024 0,-0.555 0,0 M 3.595,8.585 H 6.781 C 6.781,7.156 6.4,6.005 5.639,5.131 4.652,3.994 3.389,3.425 1.847,3.425 c -1.353,0 -2.486,0.471 -3.397,1.41 -0.922,0.949 -1.382,2.109 -1.382,3.482 0,1.09 0.286,1.964 0.86,2.621 0.583,0.668 1.569,1.25 2.961,1.749 1.381,0.507 2.255,0.917 2.622,1.226 0.376,0.311 0.563,0.79 0.563,1.439 0,0.648 -0.195,1.163 -0.585,1.543 -0.389,0.38 -0.909,0.571 -1.557,0.571 -0.649,0 -1.165,-0.189 -1.551,-0.564 -0.386,-0.376 -0.578,-0.888 -0.578,-1.537 0,-0.291 0.056,-0.695 0.17,-1.212 h -3.286 c -0.018,0.244 -0.035,0.46 -0.048,0.649 -0.015,0.187 -0.022,0.356 -0.022,0.507 0,1.485 0.503,2.72 1.509,3.708 0.995,0.986 2.255,1.48 3.777,1.48 1.533,0 2.81,-0.499 3.835,-1.495 1.024,-0.996 1.536,-2.241 1.536,-3.735 0,-1.533 -0.512,-2.768 -1.536,-3.707 C 5.09,10.967 3.867,10.394 2.072,9.839 0.851,9.463 0.24,8.871 0.24,8.063 0.24,7.838 0.284,7.624 0.374,7.422 0.463,7.22 0.583,7.043 0.733,6.894 0.884,6.742 1.06,6.625 1.262,6.541 1.464,6.456 1.678,6.414 1.903,6.414 c 1.035,0 1.598,0.724 1.692,2.171" /></g><g
           transform="translate(361.2685,322.9695)"
           id="g168"><path
             id="path170"
             style="fill:#ffffff;fill-opacity:1;fill-rule:nonzero;stroke:none"
             d="M 0,0 V -44.402 H 34.915 V 34.915 Z" /></g><g
           transform="translate(396.1837,415.2798)"
           id="g172"><path
             id="path174"
             style="fill:#ffffff;fill-opacity:1;fill-rule:nonzero;stroke:none"
             d="M 0,0 V 56.071 H -34.915 V -34.915 Z" /></g><g
           transform="translate(445.7078,357.748)"
           id="g176"><path
             id="path178"
             style="fill:#ffffff;fill-opacity:1;fill-rule:nonzero;stroke:none"
             d="m 0,0 v -79.18 h 34.915 v 44.265 z" /></g><g
           transform="translate(518.2001,338.6425)"
           id="g180"><path
             id="path182"
             style="fill:#ffffff;fill-opacity:1;fill-rule:nonzero;stroke:none"
             d="m 0,0 -96.785,96.785 -0.537,0.537 -97.187,-97.186 24.689,-24.689 72.498,72.498 72.633,-72.634 z" /></g><g
           transform="translate(418.4338,328.467)"
           id="g184"><path
             id="path186"
             style="fill:#6ab0a2;fill-opacity:1;fill-rule:nonzero;stroke:none"
             d="m 0,0 h -10.026 c -0.661,0 -1.196,0.536 -1.196,1.196 v 10.027 c 0,0.66 0.535,1.196 1.196,1.196 H 0 c 0.661,0 1.196,-0.536 1.196,-1.196 V 1.196 C 1.196,0.536 0.661,0 0,0" /></g><g
           transform="translate(433.4839,328.467)"
           id="g188"><path
             id="path190"
             style="fill:#6ab0a2;fill-opacity:1;fill-rule:nonzero;stroke:none"
             d="m 0,0 h -10.026 c -0.661,0 -1.196,0.536 -1.196,1.196 v 10.027 c 0,0.66 0.535,1.196 1.196,1.196 H 0 c 0.661,0 1.196,-0.536 1.196,-1.196 V 1.196 C 1.196,0.536 0.661,0 0,0" /></g><g
           transform="translate(418.4338,313.6469)"
           id="g192"><path
             id="path194"
             style="fill:#6ab0a2;fill-opacity:1;fill-rule:nonzero;stroke:none"
             d="m 0,0 h -10.026 c -0.661,0 -1.196,0.535 -1.196,1.196 v 10.027 c 0,0.66 0.535,1.196 1.196,1.196 H 0 c 0.661,0 1.196,-0.536 1.196,-1.196 V 1.196 C 1.196,0.536 0.661,0 0,0" /></g><g
           transform="translate(433.4839,313.6469)"
           id="g196"><path
             id="path198"
             style="fill:#6ab0a2;fill-opacity:1;fill-rule:nonzero;stroke:none"
             d="m 0,0 h -10.026 c -0.661,0 -1.196,0.535 -1.196,1.196 v 10.027 c 0,0.66 0.535,1.196 1.196,1.196 H 0 c 0.661,0 1.196,-0.536 1.196,-1.196 V 1.196 C 1.196,0.536 0.661,0 0,0" /></g></g></g></g></svg>
